<?xml version="1.0" encoding="UTF-8"?>
<svg data-bbox="0 0 781.53 222.53" viewBox="0 0 781.53 222.53" xmlns="http://www.w3.org/2000/svg" data-type="ugc">
    <g>
        <defs>
            <clipPath id="23cc997d-f089-439a-8a4c-38bfc91d3e90">
                <path d="M222.53 0v222.53H0V0z"/>
            </clipPath>
            <clipPath id="5463dcaa-788e-40c2-a6a7-7a1cb79211f4">
                <path d="M111.27 222.53c-29.71 0-57.68-11.56-78.67-32.59C11.56 168.95 0 140.97 0 111.27S11.56 53.59 32.6 32.6C53.59 11.56 81.56 0 111.27 0s57.68 11.56 78.67 32.6c21.04 21.04 32.6 48.96 32.6 78.67s-11.56 57.68-32.6 78.67c-20.99 21.03-48.96 32.59-78.67 32.59m0-215.86c-27.93 0-54.21 10.9-73.95 30.64C17.57 57.06 6.67 83.34 6.67 111.27s10.9 54.21 30.64 73.96c19.74 19.74 46.03 30.64 73.95 30.64s54.21-10.9 73.95-30.64 30.64-46.03 30.64-73.96-10.9-54.21-30.64-73.95-46.03-30.64-73.95-30.64Z"/>
            </clipPath>
            <clipPath id="de4d6e0d-a9e1-47cc-8dd6-d25956e2d3e3">
                <path d="M207.05 26.51v178.21H15.44V26.51z"/>
            </clipPath>
            <clipPath id="93f65a1c-4617-4a34-b0a2-fc8b53718f7f">
                <path d="M79.97 65.93c-5.76-4.22-11.78-7.59-17.57-10.28 2.21-9.92 5.39-17.95 7.22-22.1 3.93 2.06 11.19 6.21 18.91 12.36-3.22 5.78-6.34 12.56-8.55 20.01ZM67.1 131.94c11.09.9 21.07 4.2 28.89 7.72-1.05-1.46-2.11-3-3.18-4.63-7.32-11.18-16.04-28.61-16.04-48.1 0-4.72.52-9.31 1.4-13.73-17.01-13.36-37.78-18.48-46.04-20.08-.34 10.51.35 41.27 18.07 63.48 4.54 5.7 10.23 10.85 16.91 15.34Zm92.83-76.35c-2.2-9.89-5.38-17.9-7.2-22.04-3.93 2.06-11.19 6.21-18.91 12.36 3.21 5.76 6.32 12.52 8.53 19.95 5.76-4.22 11.78-7.59 17.57-10.28Zm-14.36 31.33c0 19.49-8.72 36.92-16.04 48.1-1.07 1.64-2.15 3.19-3.2 4.66 7.79-3.51 17.71-6.8 28.75-7.71 6.74-4.51 12.49-9.7 17.07-15.45 17.76-22.26 18.42-52.98 18.07-63.48-8.27 1.6-29.05 6.72-46.06 20.09.89 4.44 1.41 9.05 1.41 13.79m21.03 45.01c3.13.24 6.17.68 9.1 1.26a67 67 0 0 0 3.07-2.45c21.58-18.46 26.86-49.9 28.04-60.2-2.42-.1-6.02-.17-10.38.03-.1.98-.22 1.99-.35 3.03-1.7 13.07-6.3 31.88-18.55 47.22-3.17 3.97-6.83 7.69-10.94 11.12Zm-55.43 15.42c7.06-7.59 27.52-32.03 27.52-60.43s-20.45-52.85-27.52-60.43c-7.06 7.59-27.53 32.04-27.53 60.43s20.45 52.85 27.52 60.43Zm-18.01 18.89c4.46 17.99 13.52 32.43 18.01 38.83 4.49-6.4 13.55-20.83 18.01-38.82-8.53-3.53-14.91-7.55-18.02-9.68-3.12 2.14-9.49 6.15-18 9.67m-49.59-35.51c.99.84 2.01 1.66 3.05 2.44 2.91-.57 5.92-1.01 9.02-1.25-4.07-3.41-7.69-7.1-10.83-11.04-12.24-15.35-16.85-34.16-18.55-47.22-.14-1.06-.26-2.09-.36-3.1-4.34-.19-7.94-.12-10.36-.02 1.18 10.3 6.46 41.74 28.04 60.2Zm73.72 21.62c7.44 4.68 24.37 13.77 43.76 13.77s36.33-9.07 43.76-13.76c-7.44-4.68-24.37-13.76-43.76-13.76s-36.33 9.07-43.76 13.76Zm15.85 24.79c5.78 2.72 10.9 4.42 14.05 5.33.49-2.45 1.1-6.12 1.48-10.53a88 88 0 0 1-13.01-3.26c-.74 2.92-1.6 5.74-2.53 8.46Zm-59.46-5.22c.38 4.41.99 8.08 1.47 10.53 3.16-.92 8.29-2.62 14.05-5.33-.93-2.71-1.78-5.54-2.53-8.45a87.5 87.5 0 0 1-12.99 3.26Zm-12.39-33.34c-19.44 0-36.33 9.07-43.76 13.76 7.44 4.68 24.37 13.77 43.76 13.77s36.33-9.07 43.76-13.76c-7.44-4.68-24.37-13.77-43.76-13.77"/>
            </clipPath>
            <clipPath id="08d5544c-bed7-4249-8e53-4f0fcc7160bb">
                <path d="M199.05 33.91v163.44H23.37V33.91z"/>
            </clipPath>
            <clipPath id="5f579c78-b345-40de-85a1-1255ccafe701">
                <path d="M82.55 70.06c-5.28-3.87-10.8-6.96-16.11-9.43 2.03-9.1 4.94-16.46 6.62-20.27 3.6 1.89 10.26 5.7 17.34 11.34-2.95 5.3-5.81 11.52-7.84 18.35ZM70.76 130.6c10.17.82 19.32 3.85 26.49 7.08-.96-1.34-1.94-2.75-2.92-4.25-6.71-10.26-14.71-26.23-14.71-44.11 0-4.33.47-8.54 1.28-12.59-15.59-12.25-34.65-16.95-42.23-18.42-.31 9.64.32 37.85 16.57 58.22 4.17 5.22 9.39 9.95 15.51 14.07Zm85.14-70.02c-2.03-9.07-4.94-16.42-6.61-20.21-3.6 1.89-10.26 5.7-17.34 11.34 2.95 5.28 5.8 11.48 7.83 18.3 5.28-3.87 10.8-6.96 16.12-9.43m-13.18 28.74c0 17.88-8 33.86-14.71 44.11-.98 1.51-1.97 2.93-2.93 4.28 7.14-3.22 16.24-6.24 26.37-7.08 6.18-4.14 11.45-8.9 15.66-14.17 16.28-20.42 16.89-48.59 16.57-58.22-7.58 1.46-26.65 6.17-42.24 18.42.81 4.07 1.29 8.3 1.29 12.65Zm19.29 41.28c2.87.22 5.66.62 8.34 1.15.97-.72 1.91-1.48 2.81-2.25 19.8-16.93 24.64-45.77 25.72-55.21-2.22-.1-5.53-.16-9.52.02-.09.91-.2 1.83-.33 2.78-1.56 11.98-5.78 29.23-17.01 43.31-2.91 3.64-6.26 7.05-10.03 10.2Zm-50.84 14.14c6.47-6.96 25.24-29.38 25.24-55.43s-18.76-48.47-25.23-55.43c-6.48 6.96-25.24 29.38-25.24 55.43s18.76 48.47 25.24 55.43Zm-16.51 17.33c4.09 16.5 12.39 29.74 16.52 35.61 4.12-5.87 12.42-19.1 16.52-35.6-7.82-3.24-13.67-6.92-16.53-8.88-2.86 1.96-8.71 5.64-16.51 8.86Zm-45.48-32.58c.91.78 1.84 1.53 2.8 2.24 2.66-.53 5.43-.92 8.27-1.15-3.73-3.13-7.06-6.52-9.94-10.12-11.23-14.08-15.45-31.32-17.01-43.31-.12-.97-.23-1.91-.33-2.84-3.99-.18-7.29-.11-9.51-.02 1.08 9.44 5.93 38.28 25.72 55.2m67.61 19.84c6.82 4.29 22.35 12.62 40.14 12.62s33.32-8.32 40.14-12.62c-6.82-4.29-22.35-12.62-40.14-12.62s-33.32 8.32-40.14 12.62m14.53 22.73c5.3 2.5 9.99 4.06 12.89 4.9.45-2.25 1.01-5.61 1.35-9.66-4.23-.71-8.23-1.76-11.92-2.99-.69 2.68-1.47 5.27-2.32 7.76Zm-54.54-4.78c.34 4.04.91 7.41 1.35 9.66 2.9-.84 7.6-2.4 12.88-4.89a99 99 0 0 1-2.31-7.76 79 79 0 0 1-11.92 2.99m-11.36-30.59c-17.83 0-33.32 8.32-40.14 12.61 6.83 4.3 22.35 12.62 40.14 12.62s33.32-8.32 40.14-12.61c-6.82-4.3-22.35-12.62-40.14-12.62"/>
            </clipPath>
        </defs>
        <g clip-path="url(#23cc997d-f089-439a-8a4c-38bfc91d3e90)">
            <g clip-path="url(#5463dcaa-788e-40c2-a6a7-7a1cb79211f4)">
                <path d="M0 0v222.53h222.53V0z" fill="none"/>
            </g>
        </g>
        <g clip-path="url(#de4d6e0d-a9e1-47cc-8dd6-d25956e2d3e3)">
            <g clip-path="url(#93f65a1c-4617-4a34-b0a2-fc8b53718f7f)">
                <path d="M15.53 26.51v178.21h191.28V26.51z" fill="#003580"/>
            </g>
        </g>
        <g clip-path="url(#08d5544c-bed7-4249-8e53-4f0fcc7160bb)">
            <g clip-path="url(#5f579c78-b345-40de-85a1-1255ccafe701)">
                <path d="M23.45 33.91v163.44h175.44V33.91z" fill="#ac2147"/>
            </g>
        </g>
        <path d="M338.59 35.7V93h-5.81V47.16l-22.51 38.56h-2.87l-22.51-38.31v45.6h-5.81v-57.3h4.99l24.89 42.49 24.64-42.49h4.99Z" fill="#003580"/>
        <path d="M357.25 35.7h6.06V93h-6.06z" fill="#003580"/>
        <path d="M429.86 35.7V93h-4.99l-36.84-46.5V93h-6.06V35.7h4.99l36.92 46.5V35.7z" fill="#003580"/>
        <path d="M448.53 35.7h6.06V93h-6.06z" fill="#003580"/>
        <path d="M532.76 35.7V93h-5.81V47.16l-22.51 38.56h-2.87l-22.51-38.31v45.6h-5.81v-57.3h4.99l24.89 42.49 24.64-42.49h4.99Z" fill="#003580"/>
        <path d="M587.36 77.7h-31.93l-6.88 15.31h-6.3l26.2-57.3h5.98l26.2 57.3h-6.38l-6.88-15.31Zm-2.21-4.91L571.4 42.01l-13.75 30.78h27.51Z" fill="#003580"/>
        <path d="M610.12 35.7h6.06v52.06h32.09V93h-38.15z" fill="#003580"/>
        <path d="M658.33 35.7h6.06V93h-6.06z" fill="#003580"/>
        <path d="m677.57 86.05 2.37-4.67c4.09 4.01 11.38 6.96 18.91 6.96 10.72 0 15.39-4.5 15.39-10.15 0-15.72-35.28-6.06-35.28-27.26 0-8.43 6.55-15.72 21.12-15.72 6.47 0 13.18 1.88 17.76 5.08l-2.05 4.83c-4.91-3.19-10.64-4.75-15.72-4.75-10.48 0-15.15 4.67-15.15 10.4 0 15.72 35.28 6.22 35.28 27.1 0 8.43-6.71 15.64-21.37 15.64-8.6 0-17.03-3.03-21.28-7.45Z" fill="#003580"/>
        <path d="M743.71 40.94h-20.14V35.7h46.33v5.24h-20.14V93h-6.06V40.94Z" fill="#003580"/>
        <path d="M258.45 133.93h6.06v57.3h-6.06z" fill="#003580"/>
        <path d="M331.06 133.93v57.3h-4.99l-36.84-46.5v46.5h-6.06v-57.3h4.99l36.92 46.5v-46.5z" fill="#003580"/>
        <path d="M397.61 133.93v57.3h-4.99l-36.84-46.5v46.5h-6.06v-57.3h4.99l36.92 46.5v-46.5z" fill="#003580"/>
        <path d="M411.2 162.59c0-16.7 12.77-29.14 30.13-29.14s30.04 12.36 30.04 29.14-12.85 29.14-30.04 29.14-30.13-12.44-30.13-29.14m54.11 0c0-13.67-10.23-23.74-23.99-23.74s-24.15 10.07-24.15 23.74 10.31 23.74 24.15 23.74 23.99-10.07 23.99-23.74" fill="#003580"/>
        <path d="m530.88 133.93-25.38 57.3h-5.98l-25.38-57.3h6.55l21.94 49.77 22.1-49.77h6.14Z" fill="#003580"/>
        <path d="M573.36 175.93h-31.93l-6.88 15.31h-6.3l26.2-57.3h5.98l26.2 57.3h-6.38l-6.88-15.31Zm-2.21-4.91-13.75-30.78-13.75 30.78h27.51Z" fill="#003580"/>
        <path d="M604.39 139.17h-20.14v-5.24h46.33v5.24h-20.14v52.07h-6.06v-52.07Z" fill="#003580"/>
        <path d="M640.24 133.93h6.06v57.3h-6.06z" fill="#003580"/>
        <path d="M659.89 162.59c0-16.7 12.77-29.14 30.13-29.14s30.04 12.36 30.04 29.14-12.85 29.14-30.04 29.14-30.13-12.44-30.13-29.14m54.11 0c0-13.67-10.23-23.74-23.99-23.74s-24.15 10.07-24.15 23.74 10.31 23.74 24.15 23.74S714 176.26 714 162.59" fill="#003580"/>
        <path d="M781.53 133.93v57.3h-4.99l-36.84-46.5v46.5h-6.06v-57.3h4.99l36.92 46.5v-46.5z" fill="#003580"/>
    </g>
</svg>
